<svg xmlns="http://www.w3.org/2000/svg" width="128" height="128" viewBox="0 0 38.96 38.96">
  <g id="close-svgrepo-com" transform="translate(-3 -3)">
    <path id="Path_121" data-name="Path 121" d="M3.764,15.88A16.258,16.258,0,0,1,15.88,3.764a28.9,28.9,0,0,1,13.2,0A16.258,16.258,0,0,1,41.2,15.88a28.9,28.9,0,0,1,0,13.2A16.258,16.258,0,0,1,29.081,41.2a28.9,28.9,0,0,1-13.2,0A16.258,16.258,0,0,1,3.764,29.081,28.9,28.9,0,0,1,3.764,15.88Z" fill="#e22401"/>
    <path id="Path_122" data-name="Path 122" d="M17.885,10.232l-7.653,7.652m7.653,0-7.653-7.652" transform="translate(8.422 8.422)" fill="none" stroke="#fff" stroke-linecap="round" stroke-width="2.5"/>
  </g>
</svg>
