<svg xmlns="http://www.w3.org/2000/svg" width="128" height="128" viewBox="0 0 29.756 29.756">
  <g id="close-svgrepo-com" transform="translate(-2.242 -2.242)">
    <path id="Path_111" data-name="Path 111" d="M3.554,12.336a11.785,11.785,0,0,1,8.782-8.782,20.95,20.95,0,0,1,9.569,0,11.785,11.785,0,0,1,8.782,8.782,20.951,20.951,0,0,1,0,9.569A11.785,11.785,0,0,1,21.9,30.686a20.951,20.951,0,0,1-9.569,0A11.785,11.785,0,0,1,3.554,21.9,20.95,20.95,0,0,1,3.554,12.336Z" fill="#fff" stroke="#fff" stroke-width="1.5"/>
    <path id="Path_112" data-name="Path 112" d="M15.779,10.232l-5.547,5.547m5.547,0-5.547-5.547" transform="translate(4.114 4.114)" fill="#f55364" stroke="#f55364" stroke-linecap="round" stroke-width="2.5"/>
  </g>
</svg>
