<svg xmlns="http://www.w3.org/2000/svg" width="128" height="128" viewBox="0 0 38.93 38.93">
  <g id="check-svgrepo-com" transform="translate(-3 -3)">
    <path id="Path_119" data-name="Path 119" d="M3.763,15.869A16.245,16.245,0,0,1,15.869,3.763a28.881,28.881,0,0,1,13.191,0A16.245,16.245,0,0,1,41.166,15.869a28.881,28.881,0,0,1,0,13.191A16.245,16.245,0,0,1,29.06,41.166a28.881,28.881,0,0,1-13.191,0A16.245,16.245,0,0,1,3.763,29.06,28.881,28.881,0,0,1,3.763,15.869Z" transform="translate(0 0)" fill="#86b953"/>
    <path id="Path_120" data-name="Path 120" d="M9.25,13.785l4.326,4.326L21.145,10" transform="translate(7.267 8.139)" fill="none" stroke="#fff" stroke-linecap="round" stroke-linejoin="round" stroke-width="2.5"/>
  </g>
</svg>
